<svg width="16" height="16" viewBox="0 0 16 16" fill="none" xmlns="http://www.w3.org/2000/svg">
<path fill-rule="evenodd" clip-rule="evenodd" d="M0.802983 0.802998C1.09588 0.510105 1.57075 0.510105 1.86364 0.802998L15.197 14.1363C15.4899 14.4292 15.4899 14.9041 15.197 15.197C14.9041 15.4899 14.4292 15.4899 14.1363 15.197L0.802983 1.86366C0.51009 1.57077 0.51009 1.09589 0.802983 0.802998Z" fill="#48556B"/>
<path fill-rule="evenodd" clip-rule="evenodd" d="M15.197 0.802998C15.4899 1.09589 15.4899 1.57077 15.197 1.86366L1.86364 15.197C1.57075 15.4899 1.09588 15.4899 0.802983 15.197C0.51009 14.9041 0.51009 14.4292 0.802983 14.1363L14.1363 0.802998C14.4292 0.510105 14.9041 0.510105 15.197 0.802998Z" fill="#48556B"/>
</svg>
