<svg width="23" height="28" viewBox="0 0 23 28" fill="none" xmlns="http://www.w3.org/2000/svg">
<path d="M8.30546 16.3711C8.316 16.3468 8.32329 16.312 8.32329 16.2642V15.1627C8.13926 15.008 7.96413 14.8411 7.80036 14.6621C6.89638 13.6813 6.30616 12.3497 6.30616 10.9428V8.21005C5.91295 7.92576 5.65756 7.59368 5.59027 7.22354C4.8606 6.87931 4.40739 6.43384 4.18525 5.93329C3.95176 5.40682 3.98013 4.84634 4.21363 4.29071L4.23308 4.24049C4.45523 3.73995 4.85249 3.24426 5.37542 2.7915C6.74153 1.60654 9.04891 0.651611 11.2995 0.651611C13.551 0.651611 15.8584 1.60654 17.2245 2.7915C17.7474 3.24426 18.1447 3.73995 18.3668 4.24049L18.3863 4.29071C18.6198 4.84634 18.6481 5.40682 18.4138 5.93329C18.1925 6.43384 17.7393 6.87931 17.0096 7.22354C16.9423 7.59368 16.6869 7.92576 16.2937 8.21005V10.9428C16.2937 12.3497 15.7035 13.6813 14.7995 14.6629C14.6358 14.8411 14.4606 15.0088 14.2766 15.1627V16.2642C14.2766 16.312 14.2839 16.3468 14.2952 16.3711C14.4096 16.329 14.5393 16.3225 14.6649 16.3606L20.6985 18.2064C20.9198 18.2615 21.0974 18.4421 21.1363 18.6803L22.4489 26.6259C22.4595 26.6696 22.4651 26.7158 22.4651 26.7636C22.4651 27.0867 22.2024 27.3483 21.879 27.3483H0.720934C0.397447 27.3483 0.134766 27.0867 0.134766 26.7636C0.134766 26.7158 0.140441 26.6696 0.15098 26.6259L1.46358 18.6803C1.50249 18.4421 1.68086 18.2615 1.90138 18.2064L7.93495 16.3606C8.06142 16.3225 8.19033 16.329 8.30546 16.3711ZM13.1318 6.4638H15.8551V5.37118C15.8551 5.31287 15.4319 5.18004 14.8449 5.02696C13.7974 4.754 12.3527 4.6155 11.2995 4.6155C10.2472 4.6155 8.80245 4.754 7.75496 5.02696C7.16798 5.18004 6.74477 5.31287 6.74477 5.37118V6.4638H9.46726L8.83001 5.85715C8.68408 5.71784 8.6784 5.48701 8.81704 5.34122C8.89892 5.25536 9.01324 5.2181 9.1235 5.23025L11.2995 5.47972L13.4764 5.22944C13.6766 5.20676 13.8583 5.35093 13.881 5.55099C13.8956 5.67572 13.8453 5.79317 13.7569 5.8693L13.1318 6.4638ZM15.7562 7.196H12.3632L11.5517 7.96788C11.4098 8.10314 11.1885 8.10152 11.0482 7.96788L10.2367 7.196H6.84287C6.89152 7.23974 6.95557 7.2859 7.03502 7.33288C7.12582 7.35637 7.20852 7.4001 7.27662 7.46004C7.4485 7.54023 7.65524 7.62203 7.88873 7.70303C8.81217 8.02134 10.0713 8.22058 11.2995 8.22058C12.5286 8.22058 13.7877 8.02134 14.7112 7.70303C14.9438 7.62203 15.1514 7.54023 15.3233 7.46004C15.3914 7.4001 15.4741 7.35637 15.5649 7.33369C15.6443 7.28671 15.7084 7.23974 15.7562 7.196ZM12.4767 6.07989L11.3433 6.20948C11.3158 6.21353 11.2874 6.21353 11.2582 6.21029L10.1232 6.07989L11.2995 7.20005L12.4767 6.07989ZM3.62421 18.8998L3.70448 19.1541C3.70691 19.163 3.7134 19.1703 3.71988 19.1743C3.72718 19.1776 3.73772 19.1792 3.74664 19.1768L5.96565 18.4818C5.97538 18.4786 5.98267 18.4721 5.98673 18.4648C5.98997 18.4575 5.99159 18.4478 5.98835 18.4381L5.91295 18.1983L3.62421 18.8998ZM6.61262 17.9845L6.6864 18.221C6.74883 18.4203 6.7245 18.6284 6.6337 18.8026C6.54209 18.9759 6.38561 19.1152 6.18617 19.1784L3.96392 19.8733C3.76447 19.9357 3.55611 19.9114 3.38261 19.8207C3.21155 19.7308 3.07291 19.5777 3.00967 19.3817L2.92535 19.1136L2.55808 19.2254L1.41007 26.178H3.29343L3.69475 23.6509C3.74502 23.3326 4.04499 23.1155 4.36361 23.1658C4.68143 23.216 4.89871 23.5157 4.84844 23.834L4.47631 26.178H9.12026L10.0632 21.0194L9.66994 20.5334L9.31078 20.6914C9.04648 20.808 8.74164 20.7124 8.5876 20.48L6.72775 17.9497L6.61262 17.9845ZM19.6745 19.1128L19.5829 19.4044C19.5156 19.589 19.3819 19.7348 19.2173 19.8207C19.0551 19.9065 18.8589 19.9333 18.6692 19.883C17.9112 19.6603 17.1345 19.4116 16.3821 19.167C16.1964 19.0998 16.0505 18.9654 15.9654 18.8026L15.95 18.7685C15.8762 18.609 15.8559 18.4235 15.9062 18.2437L15.9881 17.9845L15.8721 17.9497L14.0131 20.48C13.8583 20.7124 13.5534 20.808 13.2891 20.6914L12.9308 20.5334L12.5367 21.0194L13.4796 26.178H18.1236L17.7515 23.834C17.7012 23.5157 17.9185 23.216 18.2371 23.1658C18.5557 23.1155 18.8549 23.3326 18.906 23.6509L19.3065 26.178H21.1898L20.0418 19.2254L19.6745 19.1128ZM16.6707 18.1935C16.6286 18.3352 16.6034 18.4543 16.631 18.4802L18.8533 19.1759C18.8614 19.1784 18.8719 19.1768 18.88 19.1727C18.8865 19.1703 18.8922 19.1638 18.8954 19.1573L18.9757 18.8998L16.6707 18.1935ZM15.6224 23.1131L16.4689 22.308L15.6646 22.4004C15.6354 22.4036 15.607 22.4036 15.5795 22.4004L14.776 22.308L15.6224 23.1131ZM17.762 22.0853L15.8746 23.8818C15.7343 24.0146 15.5122 24.0162 15.3711 23.8818L13.4959 22.0974C13.4075 22.0205 13.3572 21.9039 13.3718 21.7791C13.3945 21.5791 13.5761 21.4349 13.7764 21.4576L15.6224 21.6698L17.4685 21.4576C17.578 21.4462 17.6923 21.4835 17.7742 21.5694C17.9136 21.7151 17.9079 21.946 17.762 22.0853ZM9.49563 16.2642C9.49563 16.5963 9.39591 16.8603 9.24917 17.0652L11.3004 18.6519L13.3515 17.0652C13.204 16.8603 13.1043 16.5963 13.1043 16.2642V15.9086C12.5343 16.1702 11.9222 16.316 11.2995 16.316C10.6777 16.316 10.0664 16.1702 9.49563 15.9086V16.2642ZM9.23538 14.3948L9.28484 14.4321C9.88966 14.8784 10.5901 15.1448 11.2995 15.1448C12.0098 15.1448 12.7102 14.8784 13.3151 14.4321L13.3653 14.3948C13.5688 14.2393 13.761 14.0644 13.9385 13.8708C14.6544 13.094 15.1214 12.046 15.1214 10.9428V8.79403L15.0906 8.80537C14.0455 9.1666 12.6454 9.39177 11.2995 9.39177C9.9537 9.39177 8.55436 9.1666 7.50931 8.80537L7.47769 8.79403V10.9428C7.47769 12.046 7.94549 13.094 8.66057 13.8708C8.83893 14.0636 9.03108 14.2393 9.23538 14.3948ZM11.1796 21.4049L10.3072 26.178H12.2927L11.4203 21.4049L11.2995 21.3944L11.1796 21.4049ZM10.7766 20.0442L10.9436 20.2508C11.362 20.2151 11.2379 20.2151 11.6563 20.2508L11.8233 20.045L11.3563 19.8385H11.2436L10.7766 20.0442ZM9.26781 19.4319L9.98857 19.1144L7.98521 17.565L7.91225 17.5868L9.26781 19.4319ZM11.2995 1.82199C9.33024 1.82199 7.32283 2.64895 6.14077 3.67434C5.74756 4.01452 5.4565 4.37009 5.30489 4.71188L5.28543 4.75076C5.18084 5.00671 5.16301 5.2505 5.25706 5.4619C5.31624 5.59635 5.42002 5.72756 5.57244 5.85229V5.37118C5.57244 4.65843 6.36291 4.18299 7.46228 3.89708C8.61354 3.59659 10.1742 3.44432 11.2995 3.44432C12.4257 3.44432 13.9864 3.59659 15.1376 3.89708C16.237 4.18299 17.0266 4.65843 17.0266 5.37118V5.85229C17.1799 5.72756 17.2837 5.59635 17.3428 5.4619C17.4369 5.2505 17.419 5.00671 17.3145 4.75076L17.295 4.71188C17.1434 4.37009 16.8523 4.01452 16.4591 3.67434C15.2771 2.64895 13.2697 1.82199 11.2995 1.82199ZM12.6121 19.1144L13.3321 19.4319L14.6885 17.5868L14.6147 17.565L12.6121 19.1144Z" fill="#1C1A28"/>
</svg>
