<svg width="20" height="20" viewBox="0 0 20 20" fill="none" xmlns="http://www.w3.org/2000/svg">
<path fill-rule="evenodd" clip-rule="evenodd" d="M7.00293 18.7576C7.00293 18.3434 7.33872 18.0076 7.75293 18.0076H11.7546C12.1688 18.0076 12.5046 18.3434 12.5046 18.7576C12.5046 19.1718 12.1688 19.5076 11.7546 19.5076H7.75293C7.33872 19.5076 7.00293 19.1718 7.00293 18.7576Z" fill="#2BCD50"/>
<path fill-rule="evenodd" clip-rule="evenodd" d="M7.00293 0.750122C7.00293 0.335909 7.33872 0.00012207 7.75293 0.00012207H11.7546C12.1688 0.00012207 12.5046 0.335909 12.5046 0.750122C12.5046 1.16434 12.1688 1.50012 11.7546 1.50012H7.75293C7.33872 1.50012 7.00293 1.16434 7.00293 0.750122Z" fill="#2BCD50"/>
<path fill-rule="evenodd" clip-rule="evenodd" d="M0.75 7.00305C1.16421 7.00305 1.5 7.33884 1.5 7.75305V11.7547C1.5 12.1689 1.16421 12.5047 0.75 12.5047C0.335786 12.5047 0 12.1689 0 11.7547V7.75305C0 7.33884 0.335786 7.00305 0.75 7.00305Z" fill="#2BCD50"/>
<path fill-rule="evenodd" clip-rule="evenodd" d="M18.7576 7.00305C19.1718 7.00305 19.5076 7.33884 19.5076 7.75305V11.7547C19.5076 12.1689 19.1718 12.5047 18.7576 12.5047C18.3434 12.5047 18.0076 12.1689 18.0076 11.7547V7.75305C18.0076 7.33884 18.3434 7.00305 18.7576 7.00305Z" fill="#2BCD50"/>
<path fill-rule="evenodd" clip-rule="evenodd" d="M9.75366 7.00305C10.1679 7.00305 10.5037 7.33884 10.5037 7.75305V11.7547C10.5037 12.1689 10.1679 12.5047 9.75366 12.5047C9.33945 12.5047 9.00366 12.1689 9.00366 11.7547V7.75305C9.00366 7.33884 9.33945 7.00305 9.75366 7.00305Z" fill="#2BCD50"/>
<path fill-rule="evenodd" clip-rule="evenodd" d="M7.00293 9.75391C7.00293 9.33969 7.33872 9.00391 7.75293 9.00391H11.7546C12.1688 9.00391 12.5046 9.33969 12.5046 9.75391C12.5046 10.1681 12.1688 10.5039 11.7546 10.5039H7.75293C7.33872 10.5039 7.00293 10.1681 7.00293 9.75391Z" fill="#2BCD50"/>
<path fill-rule="evenodd" clip-rule="evenodd" d="M1.5 14.756C1.5 16.5518 2.95582 18.0076 4.75167 18.0076V19.5076C2.12739 19.5076 0 17.3803 0 14.756H1.5Z" fill="#2BCD50"/>
<path fill-rule="evenodd" clip-rule="evenodd" d="M0.75 14.0059C1.16421 14.0059 1.5 14.3416 1.5 14.7559C1.5 16.5517 2.95582 18.0075 4.75167 18.0075C5.16588 18.0075 5.50167 18.3433 5.50167 18.7575C5.50167 19.1717 5.16588 19.5075 4.75167 19.5075C2.12739 19.5075 0 17.3801 0 14.7559C0 14.3416 0.335786 14.0059 0.75 14.0059Z" fill="#2BCD50"/>
<path fill-rule="evenodd" clip-rule="evenodd" d="M14.0059 0.75C14.0059 0.335786 14.3416 0 14.7559 0C17.3801 0 19.5075 2.12739 19.5075 4.75167C19.5075 5.16588 19.1717 5.50167 18.7575 5.50167C18.3433 5.50167 18.0075 5.16588 18.0075 4.75167C18.0075 2.95582 16.5517 1.5 14.7559 1.5C14.3416 1.5 14.0059 1.16421 14.0059 0.75Z" fill="#2BCD50"/>
<path fill-rule="evenodd" clip-rule="evenodd" d="M4.75167 1.5C2.95582 1.5 1.5 2.95582 1.5 4.75167C1.5 5.16588 1.16421 5.50167 0.75 5.50167C0.335786 5.50167 0 5.16588 0 4.75167C0 2.12739 2.12739 0 4.75167 0C5.16588 0 5.50167 0.335786 5.50167 0.75C5.50167 1.16421 5.16588 1.5 4.75167 1.5Z" fill="#2BCD50"/>
<path fill-rule="evenodd" clip-rule="evenodd" d="M18.7575 14.0059C19.1717 14.0059 19.5075 14.3416 19.5075 14.7559C19.5075 17.3801 17.3801 19.5075 14.7559 19.5075C14.3416 19.5075 14.0059 19.1717 14.0059 18.7575C14.0059 18.3433 14.3416 18.0075 14.7559 18.0075C16.5517 18.0075 18.0075 16.5517 18.0075 14.7559C18.0075 14.3416 18.3433 14.0059 18.7575 14.0059Z" fill="#2BCD50"/>
</svg>
