<svg width="20" height="20" viewBox="0 0 20 20" fill="none" xmlns="http://www.w3.org/2000/svg">
<path fill-rule="evenodd" clip-rule="evenodd" d="M15.8337 4.16637C12.6119 0.944545 7.38826 0.944543 4.16643 4.16637C0.944607 7.38818 0.944604 12.6118 4.16643 15.8336C7.38824 19.0554 12.6118 19.0554 15.8337 15.8336C19.0554 12.6119 19.0552 7.38823 15.8337 4.16637C15.8336 4.16625 15.8338 4.16648 15.8337 4.16637ZM16.8943 3.10571C20.7019 6.91332 20.7019 13.0867 16.8943 16.8943C13.0867 20.7019 6.91336 20.7019 3.10577 16.8943C-0.701841 13.0867 -0.701844 6.9133 3.10577 3.10571C6.91338 -0.701902 13.0867 -0.701905 16.8943 3.10571Z" fill="#323232"/>
<path fill-rule="evenodd" clip-rule="evenodd" d="M11.4588 6.85424C10.6531 6.04859 9.3469 6.04859 8.54125 6.85424C7.7356 7.65989 7.7356 8.96611 8.54125 9.77176C9.3469 10.5774 10.6531 10.5774 11.4588 9.77176C12.2644 8.96611 12.2644 7.65989 11.4588 6.85424ZM12.5194 5.79358C11.128 4.40215 8.87202 4.40215 7.48059 5.79358C6.08916 7.18501 6.08916 9.44099 7.48059 10.8324C8.87202 12.2239 11.128 12.2239 12.5194 10.8324C13.9109 9.44099 13.9109 7.18501 12.5194 5.79358Z" fill="#323232"/>
<path fill-rule="evenodd" clip-rule="evenodd" d="M3.749 16.4427C5.31863 14.7889 7.53637 13.75 10 13.75C12.4636 13.75 14.6813 14.7888 16.2508 16.4415C16.5361 16.7419 16.5238 17.2166 16.2235 17.5018C15.9231 17.7871 15.4484 17.7748 15.1632 17.4745C13.8627 16.1052 12.0324 15.25 10 15.25C7.96764 15.25 6.13737 16.1052 4.837 17.4753C4.55186 17.7757 4.07715 17.7881 3.7767 17.503C3.47626 17.2179 3.46386 16.7431 3.749 16.4427Z" fill="#323232"/>
</svg>
