<svg width="24" height="22" viewBox="0 0 24 22" fill="none" xmlns="http://www.w3.org/2000/svg">
<path fill-rule="evenodd" clip-rule="evenodd" d="M12 1.75C11.6086 1.75 11.2691 1.96279 11.1101 2.27059L11.1085 2.2737L8.63634 7.00482C8.52386 7.22007 8.31412 7.36753 8.07351 7.40053L2.59774 8.15147L2.59579 8.15173C2.20593 8.20415 1.90346 8.46203 1.79458 8.78676C1.68711 9.10728 1.77606 9.46547 2.0445 9.71107L2.04585 9.7123L5.9897 13.3381C6.1791 13.5123 6.26603 13.7713 6.22 14.0244L5.28324 19.1755L5.28282 19.1778C5.22222 19.5052 5.35764 19.8503 5.65991 20.0629C5.96645 20.2786 6.38155 20.3103 6.72335 20.1391L6.72617 20.1377L11.667 17.6894C11.8769 17.5854 12.1233 17.5854 12.3331 17.6895L17.2739 20.1389L17.2766 20.1403C17.6184 20.3114 18.0335 20.2797 18.3401 20.064C18.6424 19.8514 18.7778 19.5063 18.7172 19.1789L18.7167 19.1765L17.78 14.0244C17.734 13.7713 17.8209 13.5122 18.0103 13.3381L21.9541 9.7123L21.9555 9.71107C22.2239 9.46547 22.3129 9.10728 22.2054 8.78676C22.0965 8.46203 21.7941 8.20415 21.4042 8.15173L21.4023 8.15147L15.9265 7.40053C15.6859 7.36753 15.4761 7.22007 15.3637 7.00482L12.8899 2.27059C12.7309 1.96279 12.3914 1.75 12 1.75ZM9.77829 1.58046C10.2058 0.754447 11.0719 0.25 12 0.25C12.928 0.25 13.794 0.754363 14.2216 1.58025C14.2219 1.58088 14.2222 1.58151 14.2226 1.58214L16.5138 5.96704L21.6041 6.66511C21.6044 6.66516 21.6048 6.6652 21.6051 6.66525C22.5342 6.79054 23.3286 7.41823 23.6276 8.30991C23.928 9.20596 23.6638 10.181 22.9684 10.8175C22.9682 10.8176 22.9685 10.8173 22.9684 10.8175L19.3297 14.1627L20.1921 18.9059C20.1922 18.9063 20.1923 18.9068 20.1924 18.9072C20.3626 19.8301 19.9683 20.7526 19.2032 21.2908C18.4423 21.8261 17.438 21.8981 16.6062 21.4821C16.6058 21.4819 16.6054 21.4817 16.605 21.4815L11.9999 19.1985L7.395 21.4804C7.39447 21.4806 7.39395 21.4809 7.39342 21.4812C6.56172 21.8969 5.55758 21.8249 4.79683 21.2897C4.03166 20.7514 3.6373 19.8289 3.80766 18.906C3.80773 18.9056 3.8078 18.9052 3.80787 18.9048L4.67026 14.1627L1.03199 10.8178C1.03174 10.8176 1.03223 10.818 1.03199 10.8178C0.336837 10.1813 0.0720039 9.20581 0.37239 8.30991C0.671357 7.41825 1.46577 6.79057 2.39484 6.66525C2.39519 6.66521 2.39554 6.66516 2.39589 6.66511L7.48618 5.96704L9.77742 1.58214C9.77771 1.58158 9.778 1.58102 9.77829 1.58046Z" fill="#1C1A28"/>
</svg>
