<svg width="28" height="27" viewBox="0 0 28 27" fill="none" xmlns="http://www.w3.org/2000/svg">
<path fill-rule="evenodd" clip-rule="evenodd" d="M5 5.5C5 4.67157 5.67157 4 6.5 4C7.32843 4 8 4.67157 8 5.5C8 6.32843 7.32843 7 6.5 7C5.67157 7 5 6.32843 5 5.5Z" fill="#323232"/>
<path fill-rule="evenodd" clip-rule="evenodd" d="M20.75 11.4949C20.75 11.0807 21.0858 10.7449 21.5 10.7449H25.5C25.9142 10.7449 26.25 11.0807 26.25 11.4949C26.25 11.9091 25.9142 12.2449 25.5 12.2449H22.25V15.7449H26.5C26.9142 15.7449 27.25 16.0807 27.25 16.4949C27.25 16.9091 26.9142 17.2449 26.5 17.2449H22.125C21.3656 17.2449 20.75 16.6293 20.75 15.8699V11.4949Z" fill="#323232"/>
<path fill-rule="evenodd" clip-rule="evenodd" d="M5.82965 22.8294C6.26895 22.3901 6.98118 22.3901 7.42048 22.8294ZM7.42048 22.8294C7.42047 22.8294 7.42049 22.8294 7.42048 22.8294C7.74224 23.1511 7.83857 23.635 7.66446 24.0554C7.49036 24.4758 7.08016 24.7499 6.62513 24.75C6.17011 24.75 5.75988 24.4759 5.58573 24.0555C5.41159 23.6352 5.50794 23.1512 5.82965 22.8294M8.47678 21.7644C8.47824 21.7658 8.47969 21.7673 8.48114 21.7687C9.23192 22.5194 9.45656 23.6485 9.05031 24.6294C8.64406 25.6103 7.68693 26.2499 6.62521 26.25C5.5635 26.25 4.6063 25.6105 4.19994 24.6296C3.79359 23.6487 4.01812 22.5197 4.76883 21.7689C5.79246 20.7453 7.45136 20.7436 8.47678 21.7644Z" fill="#323232"/>
<path fill-rule="evenodd" clip-rule="evenodd" d="M20.0748 22.5794C20.5141 22.1401 21.2263 22.1401 21.6656 22.5794ZM21.6656 22.5794C21.6656 22.5794 21.6656 22.5794 21.6656 22.5794C21.9874 22.9011 22.0837 23.385 21.9096 23.8054C21.7355 24.2258 21.3253 24.4999 20.8703 24.5C20.4152 24.5 20.005 24.2259 19.8309 23.8055C19.6567 23.3852 19.7531 22.9012 20.0748 22.5794M22.7219 21.5144C22.7234 21.5158 22.7248 21.5173 22.7263 21.5187C23.477 22.2694 23.7017 23.3985 23.2954 24.3794C22.8892 25.3603 21.932 25.9999 20.8703 26C19.8086 26 18.8514 25.3605 18.4451 24.3796C18.0387 23.3987 18.2632 22.2697 19.0139 21.5189C20.0376 20.4953 21.6965 20.4936 22.7219 21.5144Z" fill="#323232"/>
<path fill-rule="evenodd" clip-rule="evenodd" d="M8.1377 22.75C8.1377 22.3358 8.47348 22 8.8877 22H19.1014C19.5157 22 19.8514 22.3358 19.8514 22.75C19.8514 23.1642 19.5157 23.5 19.1014 23.5H8.8877C8.47348 23.5 8.1377 23.1642 8.1377 22.75Z" fill="#323232"/>
<path fill-rule="evenodd" clip-rule="evenodd" d="M17 7.74487C17 7.33066 17.3358 6.99487 17.75 6.99487H22.3068C23.6356 6.99489 24.8306 7.80388 25.3242 9.03765C25.3242 9.03766 25.3242 9.03767 25.3242 9.03768L27.0176 13.27L27.0176 13.27C27.1711 13.6538 27.25 14.0633 27.25 14.4766V21.5C27.25 22.6046 26.3546 23.5 25.25 23.5H22.6381C22.2238 23.5 21.8881 23.1642 21.8881 22.75C21.8881 22.3358 22.2238 22 22.6381 22H25.25C25.5261 22 25.75 21.7762 25.75 21.5V14.4766C25.75 14.2541 25.7075 14.0337 25.6249 13.8272L23.9315 9.59487L23.9315 9.59484C23.6657 8.9305 23.0223 8.49488 22.3068 8.49487C22.3067 8.49487 22.3067 8.49487 22.3067 8.49487H17.75C17.3358 8.49487 17 8.15909 17 7.74487Z" fill="#323232"/>
<path fill-rule="evenodd" clip-rule="evenodd" d="M0.75 13.25C1.16421 13.25 1.5 13.5858 1.5 14V21.5C1.5 21.7761 1.72386 22 2 22H4.60199C5.0162 22 5.35199 22.3358 5.35199 22.75C5.35199 23.1642 5.0162 23.5 4.60199 23.5H2C0.89543 23.5 0 22.6046 0 21.5V14C0 13.5858 0.335786 13.25 0.75 13.25Z" fill="#323232"/>
<path fill-rule="evenodd" clip-rule="evenodd" d="M13.25 5.24487C13.25 4.83066 13.5858 4.49487 14 4.49487H16.5C17.6046 4.49487 18.5 5.3903 18.5 6.49487V16.4949C18.5 17.5994 17.6046 18.4949 16.5 18.4949H1.5C1.08579 18.4949 0.75 18.1591 0.75 17.7449C0.75 17.3307 1.08579 16.9949 1.5 16.9949H16.5C16.7761 16.9949 17 16.771 17 16.4949V6.49487C17 6.21873 16.7761 5.99487 16.5 5.99487H14C13.5858 5.99487 13.25 5.65909 13.25 5.24487Z" fill="#323232"/>
<path fill-rule="evenodd" clip-rule="evenodd" d="M1.80488 4.69507C2.2494 4.69507 2.60976 5.05542 2.60976 5.49995C2.60976 6.32881 3.07568 7.28808 3.81433 8.25312C4.53303 9.1921 5.42268 10.0244 6.08484 10.5868C6.32741 10.78 6.67142 10.7799 6.91395 10.5867C7.57664 10.0244 8.46667 9.19208 9.18556 8.25305C9.92433 7.28806 10.3902 6.3288 10.3902 5.49995C10.3902 5.05542 10.7506 4.69507 11.1951 4.69507C11.6396 4.69507 12 5.05542 12 5.49995C12 6.86911 11.2666 8.18284 10.4637 9.2316C9.64366 10.3028 8.65359 11.2223 7.94742 11.821L7.93472 11.8315C7.09855 12.5114 5.9001 12.5114 5.06394 11.8315L5.05094 11.8207C4.3456 11.2222 3.35592 10.3027 2.53604 9.23153C1.73334 8.18282 1 6.86909 1 5.49995C1 5.05542 1.36036 4.69507 1.80488 4.69507Z" fill="#323232"/>
<path fill-rule="evenodd" clip-rule="evenodd" d="M6.5 1.60976C4.35148 1.60976 2.60976 3.35148 2.60976 5.5H1C1 2.46243 3.46243 0 6.5 0C9.53757 0 12 2.46243 12 5.5H10.3902C10.3902 3.35148 8.64852 1.60976 6.5 1.60976Z" fill="#323232"/>
</svg>
