<svg width="86" height="33" viewBox="0 0 86 33" fill="none" xmlns="http://www.w3.org/2000/svg">
<path d="M0.485352 0.111084H48.6732V19.9188H18.8256C13.961 19.9177 9.2962 17.8305 5.85685 14.1159C2.4175 10.4014 0.485352 5.36378 0.485352 0.111084Z" fill="#F97C00"/>
<path d="M70.3915 12.4424H51.7266V0.483032C58.9892 2.26659 65.5269 6.45568 70.3915 12.4424Z" fill="#F97C00"/>
<path d="M51.7266 14.3135H69.022C73.5256 14.3141 77.8445 16.2832 81.0278 19.7875C84.2127 23.2918 86.0009 28.0445 86.0009 33.0001H51.7266V14.3135Z" fill="#1C1A28"/>
<path d="M23.8994 22.5331H48.672V32.9974C46.7041 32.7592 44.7505 32.3984 42.8209 31.9164C35.9915 30.2078 29.554 27.0153 23.8994 22.5331Z" fill="#1C1A28"/>
</svg>
