<svg width="190" height="33" viewBox="0 0 190 33" fill="none" xmlns="http://www.w3.org/2000/svg">
<path d="M104.485 0.111084H152.673V19.9188H122.826C117.961 19.9177 113.296 17.8305 109.857 14.1159C106.417 10.4014 104.485 5.36378 104.485 0.111084Z" fill="#F97C00"/>
<path d="M174.392 12.4424H155.727V0.483032C162.989 2.26659 169.527 6.45568 174.392 12.4424Z" fill="#F97C00"/>
<path d="M155.727 14.3135H173.022C177.526 14.3141 181.845 16.2832 185.028 19.7875C188.213 23.2918 190.001 28.0445 190.001 33.0001H155.727V14.3135Z" fill="white"/>
<path d="M127.899 22.5331H152.672V32.9974C150.704 32.7592 148.75 32.3984 146.821 31.9164C139.991 30.2078 133.554 27.0153 127.899 22.5331Z" fill="white"/>
<path d="M16.952 9.47935H10.6131V25.9707H6.36659V9.47935H0V6.11597H16.952V9.47935Z" fill="white"/>
<path d="M25.5621 25.9707H21.2568V6.11597H25.5621V25.9707Z" fill="white"/>
<path d="M36.0396 25.9707H31.752V6.11597H41.9349C43.0809 6.11597 44.1294 6.28329 45.0801 6.61795C46.0309 6.9526 46.8441 7.42279 47.5196 8.02854C48.1834 8.61924 48.7222 9.35925 49.0994 10.1979C49.4819 11.0545 49.6772 11.9959 49.67 12.9484C49.67 14.4501 49.2456 15.7612 48.3967 16.8819C47.5477 18.0026 46.4173 18.8072 45.0051 19.2958C46.8889 21.5009 48.7497 23.7249 50.5874 25.9681H45.4704C44.5767 24.9413 43.7024 23.9025 42.8476 22.8518C41.9928 21.8012 41.1379 20.7343 40.2831 19.6512H36.0396V25.9707ZM36.0396 16.2878H41.9301C42.3388 16.2841 42.745 16.2155 43.1356 16.0842C43.5404 15.9561 43.9187 15.7442 44.25 15.4603C44.5804 15.1739 44.8555 14.819 45.0592 14.4161C45.2727 14.0006 45.3797 13.5122 45.38 12.951C45.3742 12.6039 45.3342 12.2584 45.2611 11.9205C45.173 11.5079 45.0065 11.1199 44.7724 10.7816C44.5277 10.4198 44.1816 10.1123 43.7342 9.8594C43.2868 9.60646 42.6863 9.47978 41.9331 9.47935H36.0425L36.0396 16.2878Z" fill="white"/>
<path d="M76.1502 14.9541C76.1301 15.3371 76.12 15.6923 76.12 16.0199C76.0993 16.312 76.0898 16.5989 76.0898 16.8812C76.0931 17.0958 76.0829 17.3104 76.059 17.5235C75.9393 18.7741 75.5476 19.9742 74.9171 21.0214C74.2634 22.1123 73.4258 23.054 72.45 23.7953C71.4452 24.5699 70.288 25.1756 68.9781 25.6125C67.6394 26.0536 66.2489 26.2738 64.8518 26.266C63.328 26.2771 61.8137 25.9997 60.3748 25.4459C58.9737 24.8996 57.7477 24.1574 56.6963 23.2189C55.6722 22.3174 54.8229 21.1973 54.199 19.9256C53.5948 18.6892 53.2784 17.3063 53.2784 15.9013C53.2784 14.4963 53.5948 13.1134 54.199 11.877C54.8206 10.5998 55.6702 9.47496 56.6963 8.57058C57.7472 7.63223 58.9733 6.88969 60.3748 6.34297C61.8138 5.78941 63.3281 5.51205 64.8518 5.52289C66.8635 5.52289 68.706 5.94197 70.3791 6.78013C72.0523 7.61828 73.4077 8.73895 74.445 10.1421L70.7903 12.1365C70.1403 11.2804 69.2922 10.5616 68.2461 9.98007C67.1936 9.39556 66.0301 9.09588 64.8518 9.10576C62.9658 9.0934 61.1368 9.81969 59.6897 11.1556C59.0415 11.7579 58.5084 12.4965 58.1211 13.3284C57.741 14.1269 57.5425 15.0155 57.5425 15.9177C57.5425 16.8198 57.741 17.7084 58.1211 18.5069C58.5109 19.3323 59.0439 20.065 59.6897 20.6633C61.1364 22 62.9657 22.7264 64.8518 22.7132C65.602 22.7162 66.3494 22.6105 67.0746 22.3989C67.758 22.2019 68.4138 21.9031 69.0242 21.5109C69.596 21.1431 70.1147 20.6825 70.5625 20.1445C70.9862 19.6391 71.3124 19.044 71.5217 18.3952H63.2976V14.9541H76.1502Z" fill="white"/>
<path d="M90.934 26.266C89.4086 26.2771 87.8929 26.0001 86.4524 25.4471C85.0503 24.9013 83.8263 24.16 82.7803 23.2229C81.7592 22.3217 80.9132 21.2031 80.2929 19.9338C79.6921 18.6927 79.3778 17.3076 79.3778 15.901C79.3778 14.4943 79.6921 13.1093 80.2929 11.8682C80.9108 10.5934 81.757 9.47001 82.7803 8.566C83.827 7.62887 85.0511 6.88728 86.4524 6.34127C87.8929 5.7887 89.4088 5.51191 90.934 5.5229C92.5394 5.5229 94.0435 5.79569 95.4459 6.34127C96.8483 6.88685 98.0723 7.62842 99.1178 8.566C100.14 9.46975 100.986 10.5924 101.604 11.8662C102.205 13.1075 102.519 14.4925 102.519 15.899C102.519 17.3056 102.205 18.6906 101.604 19.9318C100.984 21.2007 100.14 22.3192 99.1197 23.221C98.0725 24.1581 96.8485 24.8994 95.4476 25.445C94.0468 25.9905 92.5422 26.2643 90.934 26.266ZM90.9495 9.09787C89.0642 9.08675 87.2369 9.8134 85.7926 11.1484C85.1455 11.7506 84.6128 12.4881 84.2255 13.3183C83.8461 14.1162 83.648 15.0035 83.648 15.9042C83.648 16.805 83.8461 17.6923 84.2255 18.4902C84.6171 19.3174 85.1489 20.054 85.7926 20.6601C86.4774 21.3047 87.2591 21.8126 88.1024 22.1611C89.9373 22.906 91.9531 22.906 93.7881 22.1611C94.6315 21.8126 95.4132 21.3047 96.0979 20.6601C96.7415 20.054 97.2735 19.3174 97.6651 18.4902C98.0447 17.6924 98.243 16.8051 98.243 15.9042C98.243 15.0034 98.0447 14.1161 97.6651 13.3183C97.28 12.4889 96.75 11.7515 96.1057 11.1484C94.6612 9.81467 92.8339 9.08919 90.9495 9.10115V9.09787Z" fill="white"/>
</svg>
