<svg width="28" height="26" viewBox="0 0 28 26" fill="none" xmlns="http://www.w3.org/2000/svg">
<path fill-rule="evenodd" clip-rule="evenodd" d="M23.3078 1.8016C23.6038 1.70674 23.9332 1.74615 24.1758 1.88988C24.4132 2.03051 24.4999 2.22356 24.5 2.37415V23.5C25 23.5 25.0858 23.5 25.5 23.5C25.5 23.5 25.5 23.5 26 23.5V2.37392C25.9997 1.62318 25.5694 0.972041 24.9404 0.599397C24.3167 0.229822 23.5407 0.151744 22.8498 0.373228L14.8141 2.95035C13.9377 3.23132 13.2493 3.99276 13.25 4.95297V8.14178C14 8.5 14.5 9 14.75 10C14.75 9 14.75 8.556 14.75 8.14178C14.75 7.72757 14.75 4.95242 14.75 4.95242C14.7499 4.76602 14.8929 4.50027 15.272 4.37874L23.3078 1.8016Z" fill="#323232"/>
<path fill-rule="evenodd" clip-rule="evenodd" d="M6.96641 5.30908C6.60365 5.30908 6.30957 5.60316 6.30957 5.96592V8.02959H10.4369V5.96592C10.4369 5.60316 10.1428 5.30908 9.78008 5.30908H6.96641ZM6.96641 3.80908H9.78008C10.9713 3.80908 11.9369 4.77473 11.9369 5.96592V8.77959C11.9369 9.1938 11.6011 9.52959 11.1869 9.52959H5.55957C5.14536 9.52959 4.80957 9.1938 4.80957 8.77959V5.96592C4.80957 4.77473 5.77522 3.80908 6.96641 3.80908Z" fill="#323232"/>
<path fill-rule="evenodd" clip-rule="evenodd" d="M8.37305 0.995361C8.78726 0.995361 9.12305 1.33115 9.12305 1.74536V4.55903C9.12305 4.97325 8.78726 5.30903 8.37305 5.30903C7.95883 5.30903 7.62305 4.97325 7.62305 4.55903V1.74536C7.62305 1.33115 7.95883 0.995361 8.37305 0.995361Z" fill="#323232"/>
<path fill-rule="evenodd" clip-rule="evenodd" d="M4.15293 9.52954C3.79017 9.52954 3.49609 9.82362 3.49609 10.1864V24.2547C3.49609 24.669 3.16031 25.0047 2.74609 25.0047C2.33188 25.0047 1.99609 24.669 1.99609 24.2547V10.1864C1.99609 8.99519 2.96174 8.02954 4.15293 8.02954H12.5939C13.7851 8.02954 14.7508 8.99519 14.7508 10.1864V24.2547C14.7508 24.669 14.415 25.0047 14.0008 25.0047C13.5866 25.0047 13.2508 24.669 13.2508 24.2547V10.1864C13.2508 9.82362 12.9567 9.52954 12.5939 9.52954H4.15293Z" fill="#323232"/>
<path fill-rule="evenodd" clip-rule="evenodd" d="M5.51367 17.2205C5.51367 16.8062 5.84946 16.4705 6.26367 16.4705H10.4842C10.8984 16.4705 11.2342 16.8062 11.2342 17.2205C11.2342 17.6347 10.8984 17.9705 10.4842 17.9705H6.26367C5.84946 17.9705 5.51367 17.6347 5.51367 17.2205Z" fill="#323232"/>
<path fill-rule="evenodd" clip-rule="evenodd" d="M5.51367 17.2205C5.51367 16.8062 5.84946 16.4705 6.26367 16.4705H10.4842C10.8984 16.4705 11.2342 16.8062 11.2342 17.2205C11.2342 17.6347 10.8984 17.9705 10.4842 17.9705H6.26367C5.84946 17.9705 5.51367 17.6347 5.51367 17.2205Z" fill="#323232"/>
<path fill-rule="evenodd" clip-rule="evenodd" d="M5.51367 13C5.51367 12.5858 5.84946 12.25 6.26367 12.25H10.4842C10.8984 12.25 11.2342 12.5858 11.2342 13C11.2342 13.4142 10.8984 13.75 10.4842 13.75H6.26367C5.84946 13.75 5.51367 13.4142 5.51367 13Z" fill="#323232"/>
<path fill-rule="evenodd" clip-rule="evenodd" d="M8.37305 21.395C8.78726 21.395 9.12305 21.7308 9.12305 22.145V24.2546C9.12305 24.6689 8.78726 25.0046 8.37305 25.0046C7.95883 25.0046 7.62305 24.6689 7.62305 24.2546V22.145C7.62305 21.7308 7.95883 21.395 8.37305 21.395Z" fill="#323232"/>
<path fill-rule="evenodd" clip-rule="evenodd" d="M0.745117 24.2546C0.745117 23.8404 1.0809 23.5046 1.49512 23.5046H26.5055C26.9198 23.5046 27.2555 23.8404 27.2555 24.2546C27.2555 24.6689 26.9198 25.0046 26.5055 25.0046H1.49512C1.0809 25.0046 0.745117 24.6689 0.745117 24.2546Z" fill="#323232"/>
<path fill-rule="evenodd" clip-rule="evenodd" d="M17.752 8.56982C18.1662 8.56982 18.502 8.90561 18.502 9.31982V19.2527C18.502 19.6669 18.1662 20.0027 17.752 20.0027C17.3377 20.0027 17.002 19.6669 17.002 19.2527V9.31982C17.002 8.90561 17.3377 8.56982 17.752 8.56982Z" fill="#323232"/>
<path fill-rule="evenodd" clip-rule="evenodd" d="M21.5039 8.56982C21.9181 8.56982 22.2539 8.90561 22.2539 9.31982V19.2527C22.2539 19.6669 21.9181 20.0027 21.5039 20.0027C21.0897 20.0027 20.7539 19.6669 20.7539 19.2527V9.31982C20.7539 8.90561 21.0897 8.56982 21.5039 8.56982Z" fill="#323232"/>
</svg>
