<svg width="17" height="17" viewBox="0 0 17 17" fill="none" xmlns="http://www.w3.org/2000/svg">
<path fill-rule="evenodd" clip-rule="evenodd" d="M5.03125 0.625C5.44546 0.625 5.78125 0.960786 5.78125 1.375V3.8125C5.78125 4.22671 5.44546 4.5625 5.03125 4.5625C4.61704 4.5625 4.28125 4.22671 4.28125 3.8125V1.375C4.28125 0.960786 4.61704 0.625 5.03125 0.625Z" fill="#323232"/>
<path fill-rule="evenodd" clip-rule="evenodd" d="M12.3438 0.625C12.758 0.625 13.0938 0.960786 13.0938 1.375V3.8125C13.0938 4.22671 12.758 4.5625 12.3438 4.5625C11.9295 4.5625 11.5938 4.22671 11.5938 3.8125V1.375C11.5938 0.960786 11.9295 0.625 12.3438 0.625Z" fill="#323232"/>
<path fill-rule="evenodd" clip-rule="evenodd" d="M0.625 5.59375C0.625 3.52268 2.30393 1.84375 4.375 1.84375H13C15.0711 1.84375 16.75 3.52268 16.75 5.59375V13C16.75 15.0711 15.0711 16.75 13 16.75H4.375C2.30393 16.75 0.625 15.0711 0.625 13V5.59375ZM4.375 3.34375C3.13236 3.34375 2.125 4.35111 2.125 5.59375V13C2.125 14.2426 3.13236 15.25 4.375 15.25H13C14.2426 15.25 15.25 14.2426 15.25 13V5.59375C15.25 4.35111 14.2426 3.34375 13 3.34375H4.375Z" fill="#323232"/>
<path fill-rule="evenodd" clip-rule="evenodd" d="M9.3999 12C9.3999 11.6687 9.66853 11.4 9.9999 11.4H12.1774C12.5088 11.4 12.7774 11.6687 12.7774 12C12.7774 12.3314 12.5088 12.6 12.1774 12.6H9.9999C9.66853 12.6 9.3999 12.3314 9.3999 12Z" fill="#323232"/>
<path fill-rule="evenodd" clip-rule="evenodd" d="M11.191 6.43119C11.4353 6.51328 11.5999 6.74222 11.5999 6.99994V11.9999C11.5999 12.3313 11.3313 12.5999 10.9999 12.5999C10.6686 12.5999 10.3999 12.3313 10.3999 11.9999V8.7673C10.1903 8.95516 9.87039 8.97454 9.63762 8.7982C9.37349 8.59809 9.32158 8.22176 9.52168 7.95763L10.5217 6.63763C10.6773 6.4322 10.9467 6.3491 11.191 6.43119Z" fill="#323232"/>
<path fill-rule="evenodd" clip-rule="evenodd" d="M5 7C5 6.72386 5.22386 6.5 5.5 6.5H8C8.1991 6.5 8.37923 6.61812 8.45858 6.80073C8.53793 6.98333 8.50138 7.19561 8.36553 7.34116L6.93091 8.87826C7.203 8.95261 7.45572 9.06122 7.67735 9.20897C8.18417 9.54686 8.5 10.0743 8.5 10.75C8.5 11.4322 8.17766 11.9005 7.74 12.174C7.33282 12.4285 6.85454 12.5 6.5 12.5C5.6598 12.5 5.05376 12.2026 4.66214 11.8436C4.45858 11.657 4.44483 11.3407 4.63143 11.1371C4.81802 10.9336 5.13431 10.9198 5.33787 11.1064C5.54625 11.2974 5.91161 11.5 6.5 11.5C6.74547 11.5 7.01718 11.4465 7.21 11.326C7.37235 11.2245 7.5 11.0678 7.5 10.75C7.5 10.4257 7.36583 10.2031 7.12265 10.041C6.85729 9.86412 6.44055 9.75 5.9 9.75C5.7009 9.75 5.52078 9.63188 5.44143 9.44927C5.36208 9.26667 5.39863 9.05439 5.53448 8.90884L6.84939 7.5H5.5C5.22386 7.5 5 7.27614 5 7Z" fill="#323232"/>
</svg>
