<svg width="25" height="25" viewBox="0 0 25 25" fill="none" xmlns="http://www.w3.org/2000/svg">
<path fill-rule="evenodd" clip-rule="evenodd" d="M19.6745 4.82521C15.8244 0.975294 9.67021 0.707137 5.49986 4.20758C1.32952 7.70802 0.526829 13.8156 3.65108 18.2747C3.77186 18.4471 3.81464 18.6623 3.76898 18.8678L3.23655 21.2637L5.63264 20.7313C5.8381 20.6856 6.05329 20.7284 6.22566 20.8492C10.6849 23.9732 16.7924 23.1703 20.2927 18.9998C23.793 14.8293 23.5246 8.67512 19.6745 4.82521ZM4.5355 3.05866C9.30163 -0.941856 16.335 -0.635389 20.7351 3.76452C25.1352 8.16444 25.442 15.1978 21.4417 19.9641C17.5132 24.6447 10.7113 25.6138 5.64162 22.2659L2.41143 22.9836C2.16111 23.0393 1.89972 22.9631 1.71841 22.7818C1.53709 22.6005 1.46098 22.3391 1.5166 22.0888L2.23439 18.8588C-1.11376 13.7892 -0.144942 6.98726 4.5355 3.05866Z" fill="#323232"/>
</svg>
