<svg width="24" height="24" viewBox="0 0 24 24" fill="none" xmlns="http://www.w3.org/2000/svg">
<path fill-rule="evenodd" clip-rule="evenodd" d="M19.4245 4.57521C15.5744 0.725294 9.42021 0.457137 5.24986 3.95758C1.07952 7.45802 0.276829 13.5656 3.40108 18.0247C3.52186 18.1971 3.56464 18.4123 3.51898 18.6178L2.98655 21.0137L5.38264 20.4813C5.5881 20.4356 5.80329 20.4784 5.97566 20.5992C10.4349 23.7232 16.5424 22.9203 20.0427 18.7498C23.543 14.5793 23.2746 8.42512 19.4245 4.57521ZM4.2855 2.80866C9.05163 -1.19186 16.085 -0.885389 20.4851 3.51452C24.8852 7.91444 25.192 14.9478 21.1917 19.7141C17.2632 24.3947 10.4613 25.3638 5.39162 22.0159L2.16143 22.7336C1.91111 22.7893 1.64972 22.7131 1.46841 22.5318C1.28709 22.3505 1.21098 22.0891 1.2666 21.8388L1.98439 18.6088C-1.36376 13.5392 -0.394942 6.73726 4.2855 2.80866Z" fill="#323232"/>
<path fill-rule="evenodd" clip-rule="evenodd" d="M11.5827 7.72578C11.5826 7.72582 11.5827 7.72574 11.5827 7.72578L10.8717 9.16721C10.5943 9.72957 10.0579 10.1194 9.43733 10.2096C9.43732 10.2096 9.43735 10.2096 9.43733 10.2096L7.84677 10.4409C7.69427 10.463 7.56753 10.5699 7.51989 10.7164C7.47225 10.863 7.51192 11.0239 7.62224 11.1315L8.77349 12.2544C8.7735 12.2544 8.77348 12.2544 8.77349 12.2544C9.22217 12.6921 9.42688 13.3224 9.3209 13.9402L9.0492 15.524C9.02314 15.6759 9.08558 15.8295 9.21026 15.9201C9.33495 16.0107 9.50026 16.0226 9.63669 15.9509L11.0597 15.203C11.6145 14.9114 12.2773 14.9114 12.8321 15.203L14.2551 15.9509C14.3915 16.0226 14.5568 16.0107 14.6815 15.9201C14.8062 15.8295 14.8686 15.6759 14.8426 15.524L14.5709 13.9402C14.4649 13.3224 14.6696 12.6921 15.1183 12.2544C15.1183 12.2544 15.1183 12.2544 15.1183 12.2544L16.2695 11.1315C16.3798 11.0239 16.4195 10.863 16.3719 10.7164C16.3242 10.5699 16.1975 10.463 16.045 10.4409L14.4545 10.2096C14.4545 10.2096 14.4545 10.2096 14.4545 10.2096C13.8339 10.1194 13.2975 9.72961 13.0201 9.16725L12.309 7.72578C12.309 7.72576 12.309 7.72581 12.309 7.72578C12.2408 7.58758 12.1 7.5 11.9458 7.5C11.7917 7.5 11.6509 7.5876 11.5827 7.72578ZM10.2375 7.06202C10.5584 6.41172 11.2207 6 11.9458 6C12.671 6 13.3333 6.41172 13.6542 7.06202L14.3653 8.50365C14.4243 8.62319 14.5383 8.70605 14.6702 8.72522L16.2608 8.95648C16.2608 8.95648 16.2608 8.95647 16.2608 8.95648C16.9782 9.06076 17.5743 9.56323 17.7984 10.2527C18.0225 10.9421 17.8359 11.6991 17.3169 12.2053L16.1657 13.3282C16.0703 13.4212 16.0268 13.5552 16.0493 13.6866L16.321 15.2704C16.4436 15.985 16.1498 16.7073 15.5633 17.1335C14.9767 17.5598 14.1991 17.616 13.5572 17.2787L12.1343 16.5308C12.0163 16.4688 11.8754 16.4688 11.7575 16.5308L10.3345 17.2787C9.69272 17.616 8.91505 17.5598 8.32849 17.1335C7.74193 16.7073 7.4482 15.985 7.5708 15.2704L7.8425 13.6866C7.86503 13.5552 7.82152 13.4213 7.72614 13.3282L6.57489 12.2053C6.57488 12.2053 6.57489 12.2053 6.57489 12.2053C6.05591 11.6991 5.86924 10.9421 6.09337 10.2527C6.31749 9.56323 6.91354 9.06076 7.63096 8.95648C7.63097 8.95648 7.63095 8.95648 7.63096 8.95648L9.22152 8.72523C9.35341 8.70606 9.46746 8.62321 9.52643 8.50369C9.52644 8.50368 9.52643 8.5037 9.52643 8.50369L10.2375 7.06202Z" fill="#323232"/>
</svg>
