<svg width="24" height="24" viewBox="0 0 24 24" fill="none" xmlns="http://www.w3.org/2000/svg">
<path fill-rule="evenodd" clip-rule="evenodd" d="M0 0.75C0 0.335786 0.335786 0 0.75 0H9.5C9.91421 0 10.25 0.335786 10.25 0.75V9.5C10.25 9.91421 9.91421 10.25 9.5 10.25H0.75C0.335786 10.25 0 9.91421 0 9.5V0.75ZM1.5 1.5V8.75H8.75V1.5H1.5Z" fill="#323232"/>
<path fill-rule="evenodd" clip-rule="evenodd" d="M13.75 0.75C13.75 0.335786 14.0858 0 14.5 0H23.25C23.6642 0 24 0.335786 24 0.75V9.5C24 9.91421 23.6642 10.25 23.25 10.25H14.5C14.0858 10.25 13.75 9.91421 13.75 9.5V0.75ZM15.25 1.5V8.75H22.5V1.5H15.25Z" fill="#323232"/>
<path fill-rule="evenodd" clip-rule="evenodd" d="M0 14.5C0 14.0858 0.335786 13.75 0.75 13.75H9.5C9.91421 13.75 10.25 14.0858 10.25 14.5V23.25C10.25 23.6642 9.91421 24 9.5 24H0.75C0.335786 24 0 23.6642 0 23.25V14.5ZM1.5 15.25V22.5H8.75V15.25H1.5Z" fill="#323232"/>
<path fill-rule="evenodd" clip-rule="evenodd" d="M13.75 14.5C13.75 14.0858 14.0858 13.75 14.5 13.75H23.25C23.6642 13.75 24 14.0858 24 14.5V23.25C24 23.6642 23.6642 24 23.25 24H14.5C14.0858 24 13.75 23.6642 13.75 23.25V14.5ZM15.25 15.25V22.5H22.5V15.25H15.25Z" fill="#323232"/>
</svg>
