<svg width="21" height="19" viewBox="0 0 21 19" fill="none" xmlns="http://www.w3.org/2000/svg">
<path fill-rule="evenodd" clip-rule="evenodd" d="M8.37385 16.7071C7.98333 17.0976 7.35017 17.0976 6.95964 16.7071L0.292974 10.0404C0.105437 9.8529 8.07557e-05 9.59855 8.07789e-05 9.33333C8.08021e-05 9.06812 0.105438 8.81376 0.292974 8.62623L6.95964 1.95956C7.35017 1.56904 7.98333 1.56904 8.37386 1.95956C8.76438 2.35009 8.76438 2.98325 8.37386 3.37377L2.41429 9.33333L8.37385 15.2929C8.76438 15.6834 8.76438 16.3166 8.37385 16.7071Z" fill="white"/>
<path fill-rule="evenodd" clip-rule="evenodd" d="M20.0405 18.3737C19.65 18.7643 19.0168 18.7643 18.6263 18.3737L10.2929 10.0404C10.1054 9.85286 10 9.59851 10 9.33329C10 9.06808 10.1054 8.81372 10.2929 8.62619L18.6263 0.292854C19.0168 -0.0976697 19.65 -0.0976697 20.0405 0.292856C20.431 0.68338 20.431 1.31655 20.0405 1.70707L12.4143 9.33329L20.0405 16.9595C20.431 17.35 20.431 17.9832 20.0405 18.3737Z" fill="white"/>
</svg>
