<svg width="26" height="24" viewBox="0 0 26 24" fill="none" xmlns="http://www.w3.org/2000/svg">
<path fill-rule="evenodd" clip-rule="evenodd" d="M19.4697 23.6971C19.1768 23.4042 19.1768 22.9293 19.4697 22.6364L23.6893 18.4167L19.4697 14.1971C19.1768 13.9042 19.1768 13.4293 19.4697 13.1364C19.7626 12.8435 20.2374 12.8435 20.5303 13.1364L25.2803 17.8864C25.421 18.0271 25.5 18.2178 25.5 18.4167C25.5 18.6157 25.421 18.8064 25.2803 18.9471L20.5303 23.6971C20.2374 23.99 19.7626 23.99 19.4697 23.6971Z" fill="#323232"/>
<path fill-rule="evenodd" clip-rule="evenodd" d="M25.5 18.4167C25.5 18.831 25.1642 19.1667 24.75 19.1667H10.5C4.9014 19.1667 0.25 14.9929 0.25 9.70841C0.25 4.42392 4.9014 0.25008 10.5 0.25008H23.1667C23.5809 0.25008 23.9167 0.585867 23.9167 1.00008C23.9167 1.41429 23.5809 1.75008 23.1667 1.75008H10.5C5.60427 1.75008 1.75 5.37257 1.75 9.70841C1.75 14.0443 5.60427 17.6667 10.5 17.6667H24.75C25.1642 17.6667 25.5 18.0025 25.5 18.4167Z" fill="#323232"/>
</svg>
