<svg width="21" height="24" viewBox="0 0 21 24" fill="none" xmlns="http://www.w3.org/2000/svg">
<path fill-rule="evenodd" clip-rule="evenodd" d="M0 3.875C0 1.7349 1.7349 0 3.875 0H12.7854C13.9789 2.98023e-07 15.1235 0.474106 15.9674 1.31802L18.932 4.28261C19.7759 5.12652 20.25 6.27111 20.25 7.46459V20.125C20.25 22.2651 18.5151 24 16.375 24H3.25C1.45507 24 0 22.5449 0 20.75V3.875ZM3.875 1.5C2.56332 1.5 1.5 2.56332 1.5 3.875V20.75C1.5 21.7165 2.2835 22.5 3.25 22.5H16.375C17.6867 22.5 18.75 21.4367 18.75 20.125V7.46459C18.75 6.66894 18.4339 5.90588 17.8713 5.34327L14.9067 2.37868C14.3441 1.81607 13.5811 1.5 12.7854 1.5H3.875Z" fill="#323232"/>
<path fill-rule="evenodd" clip-rule="evenodd" d="M13.25 0.029541C13.6642 0.029541 14 0.365327 14 0.779541V5.12502C14 5.74634 14.5037 6.25002 15.125 6.25002H19.4705C19.8848 6.25002 20.2205 6.5858 20.2205 7.00002C20.2205 7.41423 19.8848 7.75002 19.4705 7.75002H15.125C13.6753 7.75002 12.5 6.57476 12.5 5.12502V0.779541C12.5 0.365327 12.8358 0.029541 13.25 0.029541Z" fill="#323232"/>
<path fill-rule="evenodd" clip-rule="evenodd" d="M9.0625 12C9.0625 11.5858 9.39829 11.25 9.8125 11.25H14.5C14.9142 11.25 15.25 11.5858 15.25 12C15.25 12.4142 14.9142 12.75 14.5 12.75H9.8125C9.39829 12.75 9.0625 12.4142 9.0625 12Z" fill="#323232"/>
<path fill-rule="evenodd" clip-rule="evenodd" d="M9.0625 17C9.0625 16.5858 9.39829 16.25 9.8125 16.25H14.5C14.9142 16.25 15.25 16.5858 15.25 17C15.25 17.4142 14.9142 17.75 14.5 17.75H9.8125C9.39829 17.75 9.0625 17.4142 9.0625 17Z" fill="#323232"/>
<path fill-rule="evenodd" clip-rule="evenodd" d="M4.84375 12C4.84375 11.4995 5.24949 11.0938 5.75 11.0938C6.25051 11.0938 6.65625 11.4995 6.65625 12C6.65625 12.5005 6.25051 12.9062 5.75 12.9062C5.24949 12.9062 4.84375 12.5005 4.84375 12Z" fill="#323232"/>
<path fill-rule="evenodd" clip-rule="evenodd" d="M4.84375 17C4.84375 16.4995 5.24949 16.0938 5.75 16.0938C6.25051 16.0938 6.65625 16.4995 6.65625 17C6.65625 17.5005 6.25051 17.9062 5.75 17.9062C5.24949 17.9062 4.84375 17.5005 4.84375 17Z" fill="#323232"/>
</svg>
