<svg width="32" height="32" viewBox="0 0 32 32" fill="none" xmlns="http://www.w3.org/2000/svg">
<path fill-rule="evenodd" clip-rule="evenodd" d="M3.99609 7.24616C3.99609 5.45066 5.45163 3.99512 7.24714 3.99512H23.5039C25.2994 3.99512 26.7549 5.45066 26.7549 7.24616V12.2482C26.7549 12.6625 26.4192 12.9982 26.0049 12.9982C25.5907 12.9982 25.2549 12.6625 25.2549 12.2482V7.24616C25.2549 6.27909 24.471 5.49512 23.5039 5.49512H7.24714C6.28006 5.49512 5.49609 6.27909 5.49609 7.24616V24.7535C5.49609 25.7205 6.28006 26.5045 7.24714 26.5045H13.4997C13.914 26.5045 14.2497 26.8403 14.2497 27.2545C14.2497 27.6687 13.914 28.0045 13.4997 28.0045H7.24714C5.45163 28.0045 3.99609 26.549 3.99609 24.7535V7.24616Z" fill="#323232"/>
<path fill-rule="evenodd" clip-rule="evenodd" d="M8.99805 9.74731C8.99805 9.3331 9.33383 8.99731 9.74805 8.99731H21.0027C21.4169 8.99731 21.7527 9.3331 21.7527 9.74731C21.7527 10.1615 21.4169 10.4973 21.0027 10.4973H9.74805C9.33383 10.4973 8.99805 10.1615 8.99805 9.74731Z" fill="#323232"/>
<path fill-rule="evenodd" clip-rule="evenodd" d="M8.99805 14.7493C8.99805 14.3351 9.33383 13.9993 9.74805 13.9993H16.0007C16.4149 13.9993 16.7507 14.3351 16.7507 14.7493C16.7507 15.1635 16.4149 15.4993 16.0007 15.4993H9.74805C9.33383 15.4993 8.99805 15.1635 8.99805 14.7493Z" fill="#323232"/>
<path fill-rule="evenodd" clip-rule="evenodd" d="M8.99805 19.7515C8.99805 19.3373 9.33383 19.0015 9.74805 19.0015H13.4996C13.9138 19.0015 14.2496 19.3373 14.2496 19.7515C14.2496 20.1657 13.9138 20.5015 13.4996 20.5015H9.74805C9.33383 20.5015 8.99805 20.1657 8.99805 19.7515Z" fill="#323232"/>
<path fill-rule="evenodd" clip-rule="evenodd" d="M24.6747 24.6747C24.9676 24.3819 25.4425 24.3819 25.7354 24.6747L27.785 26.7244C28.0779 27.0172 28.0779 27.4921 27.785 27.785C27.4921 28.0779 27.0172 28.0779 26.7244 27.785L24.6747 25.7354C24.3819 25.4425 24.3819 24.9676 24.6747 24.6747Z" fill="#323232"/>
<path fill-rule="evenodd" clip-rule="evenodd" d="M18.001 21.9074C18.0012 19.7498 19.7503 18.0007 21.9079 18.0005ZM21.9079 16.5005C18.9218 16.5007 16.5012 18.9213 16.501 21.9074ZM21.908 18.0005C24.0657 18.0005 25.8149 19.7497 25.8149 21.9074C25.8149 24.0652 24.0657 25.8144 21.9079 25.8144C19.7502 25.8144 18.001 24.0652 18.001 21.9075M21.9079 16.5005C24.8941 16.5005 27.3149 18.9213 27.3149 21.9074C27.3149 24.8936 24.8941 27.3144 21.9079 27.3144C18.9217 27.3144 16.501 24.8936 16.501 21.9074V21.9074" fill="#323232"/>
</svg>
