<svg width="25" height="22" viewBox="0 0 25 22" fill="none" xmlns="http://www.w3.org/2000/svg">
<path fill-rule="evenodd" clip-rule="evenodd" d="M7.8296 1.75C7.20469 1.75 6.62637 2.08359 6.3143 2.6247L1.9843 10.1247C1.67201 10.6664 1.67185 11.3333 1.98413 11.875L6.31413 19.375C6.62631 19.9163 7.20365 20.25 7.8296 20.25H16.4896C17.1145 20.25 17.6928 19.9164 18.0049 19.3753L22.3349 11.8753C22.6472 11.3336 22.6474 10.6667 22.3351 10.125L18.0051 2.62499C17.6928 2.08352 17.1153 1.75 16.4909 1.75H7.8296ZM5.01508 1.87501C5.59554 0.868793 6.66963 0.25 7.8296 0.25H16.4909C17.6512 0.25 18.7239 0.869155 19.3041 1.87501C19.3042 1.87511 19.3041 1.87491 19.3041 1.87501L23.6341 9.37501C24.2141 10.3807 24.2143 11.6191 23.6343 12.6247L19.3043 20.1247C19.3042 20.1248 19.3043 20.1246 19.3043 20.1247C18.7238 21.1309 17.6496 21.75 16.4896 21.75H7.8296C6.66817 21.75 5.59544 21.131 5.01508 20.125C5.01502 20.1249 5.01514 20.1251 5.01508 20.125L0.68508 12.625C0.105085 11.6193 0.104917 10.3809 0.684912 9.3753L5.01508 1.87501C5.01514 1.87491 5.01502 1.87511 5.01508 1.87501Z" fill="#1C1A28"/>
<path fill-rule="evenodd" clip-rule="evenodd" d="M15.1287 8.03106C13.4889 6.39134 10.8304 6.39134 9.19073 8.03106L9.19073 8.03106C7.55101 9.67077 7.55101 12.3293 9.19073 13.969L8.73491 14.4248L9.19073 13.969C10.8304 15.6087 13.4889 15.6087 15.1287 13.969L15.659 14.4993L15.1287 13.969C16.7684 12.3293 16.7684 9.67078 15.1287 8.03106ZM16.1893 6.9704C13.9638 4.74489 10.3556 4.74489 8.13007 6.9704ZM16.1893 6.9704C18.4148 9.1959 18.4148 12.8042 16.1893 15.0296C13.9638 17.2552 10.3556 17.2552 8.13007 15.0296L8.6604 14.4993L8.13007 15.0296C5.90456 12.8041 5.90456 9.19589 8.13007 6.9704" fill="#1C1A28"/>
</svg>
