<svg width="20" height="18" viewBox="0 0 20 18" fill="none" xmlns="http://www.w3.org/2000/svg">
<path d="M18.8773 0.724244C18.6865 0.562619 18.4556 0.455696 18.2089 0.41484C17.9623 0.373985 17.7092 0.400723 17.4765 0.492212L1.61243 6.72268C1.33418 6.82869 1.09849 7.02323 0.941653 7.27635C0.784816 7.52946 0.71553 7.82711 0.744464 8.12346C0.770278 8.4197 0.89143 8.69959 1.08975 8.92115C1.28808 9.14272 1.55288 9.29402 1.84446 9.35237L5.87493 10.1516V15.1875C5.87479 15.46 5.95558 15.7263 6.10705 15.9527C6.25853 16.1792 6.47385 16.3555 6.72571 16.4594C6.8924 16.5265 7.07026 16.5615 7.24993 16.5625C7.43052 16.5632 7.60943 16.5278 7.77618 16.4584C7.94292 16.3891 8.09416 16.2871 8.22103 16.1586L10.4554 13.9328L13.8327 16.9063C14.0821 17.1262 14.4026 17.2483 14.7351 17.25C14.8813 17.253 15.0268 17.2297 15.1648 17.1813C15.3916 17.1095 15.5957 16.9798 15.757 16.805C15.9182 16.6301 16.0311 16.4162 16.0843 16.1844L19.3156 2.07346C19.372 1.82997 19.3611 1.57569 19.2839 1.33797C19.2066 1.10024 19.0661 0.88806 18.8773 0.724244V0.724244ZM6.39915 8.85393L2.11946 8.00315L14.1163 3.28518L6.39915 8.85393ZM7.24993 15.1875V11.1141L9.41556 13.0219L7.24993 15.1875ZM14.7437 15.875L7.66243 9.64456L17.8632 2.27971L14.7437 15.875Z" fill="black"/>
</svg>
