<svg width="32" height="32" viewBox="0 0 32 32" fill="none" xmlns="http://www.w3.org/2000/svg">
<path fill-rule="evenodd" clip-rule="evenodd" d="M0.25 1C0.25 0.585786 0.585786 0.25 1 0.25H31C31.4142 0.25 31.75 0.585786 31.75 1V31C31.75 31.4142 31.4142 31.75 31 31.75H1C0.585786 31.75 0.25 31.4142 0.25 31V1ZM1.75 1.75V30.25H30.25V1.75H1.75ZM6 4C6.41421 4 6.75 4.33579 6.75 4.75V7.93934L7.96967 6.71967C8.26256 6.42678 8.73744 6.42678 9.03033 6.71967C9.32322 7.01256 9.32322 7.48744 9.03033 7.78033L6.53033 10.2803C6.23744 10.5732 5.76256 10.5732 5.46967 10.2803L2.96967 7.78033C2.67678 7.48744 2.67678 7.01256 2.96967 6.71967C3.26256 6.42678 3.73744 6.42678 4.03033 6.71967L5.25 7.93934V4.75C5.25 4.33579 5.58579 4 6 4ZM11.5 8.25C11.5 6.59315 12.8431 5.25 14.5 5.25H25C26.6569 5.25 28 6.59315 28 8.25V15C28 16.6569 26.6569 18 25 18H20.5V23.1876C20.4999 25.155 18.905 26.7499 16.9376 26.75H7.56262C7.56255 26.75 7.56269 26.75 7.56262 26.75C6.61809 26.7502 5.71195 26.3752 5.04387 25.7075C4.37575 25.0398 4.00026 24.1339 4 23.1893V17.5626C4 17.5625 4 17.5627 4 17.5626C3.99979 16.6181 4.37478 15.7119 5.04249 15.0439C5.71024 14.3758 6.61605 14.0003 7.56066 14H11.5V8.25ZM11.5415 15.5H7.56107C7.561 15.5 7.56114 15.5 7.56107 15.5C7.01436 15.5002 6.48991 15.7176 6.10344 16.1042C5.71691 16.491 5.49985 17.0154 5.5 17.5622V23.1889C5.5 23.189 5.5 23.1889 5.5 23.1889C5.50021 23.7356 5.71755 24.2601 6.10424 24.6466C6.49098 25.0331 7.01543 25.2502 7.56221 25.25H16.9376C18.0766 25.25 19 24.3266 19 23.1876V18H14.5C13.0135 18 11.7795 16.9189 11.5415 15.5ZM19.7268 16.5H14.5C13.6716 16.5 13 15.8284 13 15V8.25C13 7.42157 13.6716 6.75 14.5 6.75H25C25.8284 6.75 26.5 7.42157 26.5 8.25V15C26.5 15.8284 25.8284 16.5 25 16.5H19.7732C19.7655 16.4998 19.7577 16.4996 19.75 16.4996C19.7423 16.4996 19.7345 16.4998 19.7268 16.5ZM19.75 10.4998C19.1287 10.4998 18.625 11.0035 18.625 11.6248C18.625 12.2461 19.1287 12.7498 19.75 12.7498C20.3713 12.7498 20.875 12.2461 20.875 11.6248C20.875 11.0035 20.3713 10.4998 19.75 10.4998ZM17.125 11.6248C17.125 10.1751 18.3003 8.99982 19.75 8.99982C21.1997 8.99982 22.375 10.1751 22.375 11.6248C22.375 13.0746 21.1997 14.2498 19.75 14.2498C18.3003 14.2498 17.125 13.0746 17.125 11.6248ZM7.75 22.25C7.75 21.8358 8.08579 21.5 8.5 21.5H11C11.4142 21.5 11.75 21.8358 11.75 22.25C11.75 22.6642 11.4142 23 11 23H8.5C8.08579 23 7.75 22.6642 7.75 22.25ZM25.4697 21.7197C25.7626 21.4268 26.2374 21.4268 26.5303 21.7197L29.0303 24.2197C29.3232 24.5126 29.3232 24.9874 29.0303 25.2803C28.7374 25.5732 28.2626 25.5732 27.9697 25.2803L26.75 24.0607V27.25C26.75 27.6642 26.4142 28 26 28C25.5858 28 25.25 27.6642 25.25 27.25V24.0607L24.0303 25.2803C23.7374 25.5732 23.2626 25.5732 22.9697 25.2803C22.6768 24.9874 22.6768 24.5126 22.9697 24.2197L25.4697 21.7197Z" fill="#323232"/>
</svg>
