<svg width="30" height="20" viewBox="0 0 30 20" fill="none" xmlns="http://www.w3.org/2000/svg">
<path fill-rule="evenodd" clip-rule="evenodd" d="M25.4603 7.43456C24.7657 6.73991 23.6395 6.73991 22.9448 7.43456L22.4145 6.90423L22.9448 7.43456C22.2502 8.1292 22.2502 9.25544 22.9448 9.95009C23.6395 10.6447 24.7657 10.6447 25.4603 9.95009C26.155 9.25544 26.155 8.1292 25.4603 7.43456ZM26.521 6.3739C25.2406 5.09347 23.1646 5.09347 21.8842 6.3739C20.6037 7.65433 20.6037 9.73031 21.8842 11.0107C23.1646 12.2912 25.2406 12.2912 26.521 11.0107C27.8014 9.73032 27.8014 7.65433 26.521 6.3739Z" fill="white"/>
<path fill-rule="evenodd" clip-rule="evenodd" d="M17.2222 2.92078C15.9945 1.69307 14.004 1.69307 12.7762 2.92078C11.5485 4.1485 11.5485 6.13901 12.7762 7.36672L12.2459 7.89705L12.7762 7.36672C14.004 8.59443 15.9945 8.59443 17.2222 7.36672L17.7525 7.89705L17.2222 7.36672C18.4499 6.139 18.4499 4.14849 17.2222 2.92078ZM18.2825 1.85978C16.469 0.0466286 13.529 0.0467389 11.7156 1.86012L11.7156 1.86012C9.9021 3.67363 9.90209 6.61389 11.7156 8.42738L12.2165 7.92651L11.7156 8.42738C13.5291 10.2409 16.4694 10.2409 18.2828 8.42738L17.7804 7.92496L18.2829 8.42738C20.0963 6.61387 20.0963 3.67361 18.2828 1.86012C18.2827 1.86 18.2826 1.85989 18.2825 1.85978Z" fill="white"/>
<path fill-rule="evenodd" clip-rule="evenodd" d="M7.05604 7.43456C6.3614 6.73991 5.23516 6.73991 4.54052 7.43456L4.01019 6.90423L4.54052 7.43456C3.84587 8.1292 3.84587 9.25544 4.54052 9.95009C5.23516 10.6447 6.3614 10.6447 7.05604 9.95009C7.75069 9.25544 7.75069 8.1292 7.05604 7.43456ZM8.1167 6.3739C6.83627 5.09347 4.76029 5.09347 3.47986 6.3739C2.19942 7.65433 2.19942 9.73031 3.47986 11.0107C4.76029 12.2912 6.83627 12.2912 8.1167 11.0107C9.39714 9.73032 9.39713 7.65433 8.1167 6.3739Z" fill="white"/>
<path fill-rule="evenodd" clip-rule="evenodd" d="M23.874 14.2551C23.874 13.8409 24.2098 13.5051 24.624 13.5051H25.6253C27.7657 13.5051 29.5003 15.2397 29.5003 17.3801V18.7501C29.5003 19.1643 29.1645 19.5001 28.7503 19.5001C28.3361 19.5001 28.0003 19.1643 28.0003 18.7501V17.3801C28.0003 16.0681 26.9373 15.0051 25.6253 15.0051H24.624C24.2098 15.0051 23.874 14.6693 23.874 14.2551Z" fill="white"/>
<path fill-rule="evenodd" clip-rule="evenodd" d="M4.375 15.0051C3.06296 15.0051 2 16.0681 2 17.3801V18.7501C2 19.1643 1.66421 19.5001 1.25 19.5001C0.835786 19.5001 0.5 19.1643 0.5 18.7501V17.3801C0.5 15.2397 2.23454 13.5051 4.375 13.5051H5.37625C5.79046 13.5051 6.12625 13.8409 6.12625 14.2551C6.12625 14.6693 5.79046 15.0051 5.37625 15.0051H4.375Z" fill="white"/>
<path fill-rule="evenodd" clip-rule="evenodd" d="M7.5752 16.7485C7.5752 13.9181 9.86973 11.6235 12.7002 11.6235H17.2989C20.1294 11.6235 22.4239 13.9181 22.4239 16.7485V18.7498C22.4239 19.164 22.0882 19.4998 21.6739 19.4998C21.2597 19.4998 20.9239 19.164 20.9239 18.7498V16.7485C20.9239 14.7465 19.301 13.1235 17.2989 13.1235H12.7002C10.6982 13.1235 9.0752 14.7465 9.0752 16.7485V18.7498C9.0752 19.164 8.73941 19.4998 8.3252 19.4998C7.91098 19.4998 7.5752 19.164 7.5752 18.7498V16.7485Z" fill="white"/>
</svg>
