<svg width="23" height="24" viewBox="0 0 23 24" fill="none" xmlns="http://www.w3.org/2000/svg">
<path fill-rule="evenodd" clip-rule="evenodd" d="M11.3968 0.694442C11.529 0.657499 11.6687 0.657517 11.8008 0.694495L21.7646 3.48274C22.0885 3.57339 22.3125 3.86862 22.3125 4.20499V9.9226C22.3124 13.0182 21.2953 16.0319 19.4102 18.5368C17.5255 21.0412 14.87 22.9089 11.8235 23.8812C11.6751 23.9286 11.5158 23.9286 11.3675 23.8813C8.32005 22.9091 5.66364 21.0411 3.77831 18.5362C1.89257 16.0308 0.875047 13.0163 0.875 9.91994V4.20499C0.875 3.86855 1.09905 3.57327 1.42307 3.48269L11.3968 0.694442ZM2.375 4.77408V9.91994C2.37504 12.6856 3.28351 15.3845 4.97677 17.6342C6.62359 19.8222 8.93263 21.4783 11.5954 22.3774C14.2572 21.4782 16.5654 19.8223 18.2117 17.6348C19.9043 15.3857 20.8124 12.6875 20.8125 9.92259V4.77393L11.5986 2.19553L2.375 4.77408Z" fill="#323232"/>
<path fill-rule="evenodd" clip-rule="evenodd" d="M9.30381 13.5L13.8837 13.5C15.2213 13.5006 16.4319 14.1945 16.9664 15.2674C17.1378 15.6115 16.9579 16.012 16.5647 16.162C16.1714 16.3119 15.7137 16.1546 15.5422 15.8105C15.2546 15.2331 14.6035 14.8597 13.8837 14.8593H9.30417C9.30405 14.8593 9.30429 14.8593 9.30417 14.8593C8.58439 14.8597 7.93287 15.2331 7.64526 15.8105C7.47385 16.1546 7.01609 16.3119 6.62284 16.162C6.22958 16.012 6.04974 15.6115 6.22115 15.2674C6.75563 14.1945 7.96617 13.5006 9.30381 13.5Z" fill="#323232"/>
<path fill-rule="evenodd" clip-rule="evenodd" d="M11.5938 6.8847C10.4428 6.8847 9.5097 7.81693 9.5097 8.96875C9.5097 10.1206 10.4428 11.0528 11.5938 11.0528C12.7445 11.0528 13.6778 10.1195 13.6778 8.96875C13.6778 7.81799 12.7445 6.8847 11.5938 6.8847ZM11.5938 5.34375C9.59217 5.34375 7.96875 6.96543 7.96875 8.96875C7.96875 10.9721 9.59217 12.5938 11.5938 12.5938C13.5956 12.5938 15.2188 10.9706 15.2188 8.96875C15.2188 6.96694 13.5956 5.34375 11.5938 5.34375Z" fill="#323232"/>
</svg>
