<svg width="23" height="26" viewBox="0 0 23 26" fill="none" xmlns="http://www.w3.org/2000/svg">
<path fill-rule="evenodd" clip-rule="evenodd" d="M17.4462 15.682C17.446 15.6821 17.4464 15.6819 17.4462 15.682L14.3349 17.432C14.1869 17.5148 14.0948 17.6708 14.0938 17.8404V21.2828C14.0943 21.452 14.186 21.6078 14.3337 21.6904L14.3352 21.6913L17.4464 23.4413C17.5885 23.5213 17.7624 23.5215 17.9044 23.4415L21.0184 21.6906C21.1666 21.6076 21.2588 21.4515 21.26 21.2817V17.8396C21.2595 17.6705 21.1677 17.5149 21.02 17.4326L21.0173 17.4311L17.9076 15.682C17.9074 15.6819 17.9078 15.6821 17.9076 15.682C17.7645 15.6022 17.5892 15.6022 17.4462 15.682ZM13.3436 21.2837H12.5938V17.8359C12.5964 17.125 12.9816 16.4707 13.6017 16.1234C13.602 16.1232 13.6015 16.1235 13.6017 16.1234L16.7138 14.3729C17.3122 14.0381 18.0415 14.0381 18.6399 14.3729L18.6414 14.3738L21.75 16.1222C21.7505 16.1225 21.751 16.1228 21.7515 16.1231C22.3729 16.47 22.7586 17.1255 22.76 17.8372L22.76 17.8387L22.76 21.2837L22.76 21.2869C22.7569 21.9976 22.3718 22.6516 21.7519 22.9991C21.7518 22.9991 21.752 22.999 21.7519 22.9991L18.6406 24.7484C18.6405 24.7484 18.6406 24.7484 18.6406 24.7484C18.0417 25.0857 17.31 25.0858 16.7111 24.7486C16.7109 24.7486 16.7112 24.7487 16.7111 24.7486L13.6013 22.9995C13.601 22.9993 13.6006 22.9991 13.6003 22.9989C12.9799 22.6514 12.5951 21.9963 12.5938 21.2852L13.3436 21.2837Z" fill="#323232"/>
<path fill-rule="evenodd" clip-rule="evenodd" d="M17.6719 18.8098C18.0861 18.8098 18.4219 19.1456 18.4219 19.5598V24.2486C18.4219 24.6628 18.0861 24.9986 17.6719 24.9986C17.2577 24.9986 16.9219 24.6628 16.9219 24.2486V19.5598C16.9219 19.1456 17.2577 18.8098 17.6719 18.8098Z" fill="#323232"/>
<path fill-rule="evenodd" clip-rule="evenodd" d="M12.8559 16.8562C13.0586 16.495 13.5158 16.3665 13.877 16.5693L17.6724 18.6995L21.4678 16.5693C21.829 16.3665 22.2862 16.495 22.4889 16.8562C22.6917 17.2174 22.5632 17.6746 22.202 17.8773L18.0395 20.2136C17.8115 20.3415 17.5333 20.3415 17.3053 20.2136L13.1428 17.8773C12.7816 17.6746 12.6531 17.2174 12.8559 16.8562Z" fill="#323232"/>
<path fill-rule="evenodd" clip-rule="evenodd" d="M6.375 16.8733C3.68261 16.8733 1.5 19.0559 1.5 21.7483C1.5 22.1625 1.16421 22.4983 0.75 22.4983C0.335786 22.4983 0 22.1625 0 21.7483C0 18.2275 2.85418 15.3733 6.375 15.3733H9.60375C10.018 15.3733 10.3538 15.7091 10.3538 16.1233C10.3538 16.5375 10.018 16.8733 9.60375 16.8733H6.375Z" fill="#323232"/>
<path fill-rule="evenodd" clip-rule="evenodd" d="M10.7492 2.49854C9.53922 2.49854 8.37881 2.9793 7.52337 3.83503L7.52324 3.83516C6.21825 5.13998 5.82779 7.10244 6.53394 8.8074C7.24009 10.5124 8.90379 11.6241 10.7492 11.6241C12.5946 11.6241 14.2583 10.5124 14.9645 8.8074C15.6706 7.10244 15.2802 5.13998 13.9752 3.83516M6.46266 2.77443C7.59941 1.63736 9.14136 0.998535 10.7492 0.998535C12.357 0.998535 13.899 1.63736 15.0357 2.77443C15.0358 2.77447 15.0358 2.77451 15.0359 2.77455M6.46253 2.77455C4.7286 4.50835 4.20981 7.11593 5.1481 9.38138C6.08641 11.6469 8.29707 13.1241 10.7492 13.1241C13.2013 13.1241 15.412 11.6469 16.3503 9.38138C17.2886 7.11593 16.7698 4.50835 15.0359 2.77455M6.46266 2.77443C6.46262 2.77447 6.46257 2.77451 6.46253 2.77455ZM10.7492 2.49854C11.9592 2.49854 13.1196 2.9793 13.975 3.83503Z" fill="#323232"/>
</svg>
