<svg width="18" height="18" viewBox="0 0 18 18" fill="none" xmlns="http://www.w3.org/2000/svg">
<path d="M8.99995 0.0625C7.44775 0.0623822 5.92228 0.466516 4.57373 1.23511C3.22518 2.00371 2.10005 3.11026 1.30911 4.44583C0.51818 5.7814 0.0887123 7.29993 0.0629947 8.85192C0.0372771 10.4039 0.416197 11.9358 1.16245 13.2969L0.431978 15.875C0.363834 16.1099 0.360004 16.3588 0.420886 16.5957C0.481769 16.8327 0.605132 17.0489 0.778096 17.2218C0.951061 17.3948 1.16729 17.5182 1.4042 17.5791C1.64111 17.6399 1.89002 17.6361 2.12495 17.568L4.70307 16.8375C5.89785 17.4923 7.22653 17.8654 8.58755 17.928C9.94857 17.9907 11.3059 17.7414 12.5558 17.1991C13.8057 16.6569 14.9151 15.836 15.7992 14.7994C16.6833 13.7627 17.3186 12.5376 17.6567 11.2177C17.9948 9.89787 18.0266 8.51819 17.7498 7.18414C17.473 5.85009 16.8948 4.59699 16.0595 3.52062C15.2242 2.44424 14.1539 1.57308 12.9304 0.973725C11.7068 0.374371 10.3624 0.0626887 8.99995 0.0625V0.0625ZM8.99995 16.5625C7.64241 16.5612 6.31 16.1962 5.14135 15.5055C5.03351 15.4453 4.91246 15.4129 4.78901 15.4109C4.72512 15.411 4.66153 15.4197 4.59995 15.4367L1.74682 16.2531L2.56323 13.4C2.58834 13.3097 2.5952 13.2153 2.58339 13.1224C2.57159 13.0294 2.54136 12.9397 2.49448 12.8586C1.64314 11.4236 1.29029 9.74731 1.49087 8.09087C1.69146 6.43443 2.43422 4.89083 3.60347 3.7005C4.77272 2.51017 6.3028 1.73994 7.95539 1.50979C9.60798 1.27964 11.2903 1.60248 12.7403 2.42804C14.1903 3.2536 15.3265 4.53552 15.9721 6.07412C16.6176 7.61272 16.7362 9.32162 16.3094 10.9346C15.8825 12.5477 14.9342 13.9742 13.6122 14.9922C12.2901 16.0101 10.6685 16.5622 8.99995 16.5625V16.5625ZM13.5117 10.2977L11.7499 9.29219C11.539 9.17076 11.2992 9.10829 11.0558 9.11131C10.8124 9.11434 10.5743 9.18275 10.3664 9.30938L9.3437 9.91953C8.82201 9.61274 8.38721 9.17794 8.08041 8.65625L8.69057 7.63359C8.8172 7.42569 8.88561 7.18756 8.88863 6.94415C8.89166 6.70074 8.82918 6.46099 8.70776 6.25L7.70229 4.48828C7.59048 4.29287 7.42912 4.1304 7.23449 4.01724C7.03986 3.90408 6.81883 3.84424 6.5937 3.84375C5.77467 3.84375 4.98906 4.16851 4.40912 4.74685C3.82917 5.32518 3.50222 6.10988 3.49995 6.92891C3.49995 8.9354 4.29643 10.8598 5.71443 12.2794C7.13243 13.6991 9.05596 14.4977 11.0624 14.5H11.071C11.8901 14.4977 12.6748 14.1708 13.2531 13.5908C13.8314 13.0109 14.1562 12.2253 14.1562 11.4062C14.1557 11.1811 14.0959 10.9601 13.9827 10.7655C13.8695 10.5708 13.7071 10.4095 13.5117 10.2977V10.2977ZM11.071 13.125C10.257 13.1261 9.45082 12.9666 8.69856 12.6557C7.9463 12.3447 7.2628 11.8883 6.68722 11.3127C6.11163 10.7371 5.65527 10.0536 5.34429 9.30139C5.03331 8.54913 4.87382 7.74291 4.87495 6.92891C4.87481 6.48269 5.04907 6.05409 5.36055 5.73458C5.67204 5.41508 6.09606 5.22996 6.54213 5.21875L7.51323 6.92891L6.70542 8.26953C6.6495 8.36515 6.61721 8.47273 6.61123 8.58334C6.60526 8.69394 6.62576 8.80438 6.67104 8.90547C7.15 9.98611 8.01383 10.8499 9.09448 11.3289C9.19557 11.3742 9.306 11.3947 9.41661 11.3887C9.52721 11.3827 9.6348 11.3504 9.73042 11.2945L11.071 10.4867L12.7812 11.4578C12.77 11.9039 12.5849 12.3279 12.2654 12.6394C11.9459 12.9509 11.5173 13.1251 11.071 13.125Z" fill="black"/>
</svg>
